<?xml version="1.0" encoding="utf-8"?>
<!-- Generator: Adobe Illustrator 25.0.1, SVG Export Plug-In . SVG Version: 6.00 Build 0)  -->
<svg version="1.1" id="Layer_1" xmlns="http://www.w3.org/2000/svg" xmlns:xlink="http://www.w3.org/1999/xlink" x="0px" y="0px"
	 viewBox="0 0 418 127" style="enable-background:new 0 0 418 127;" xml:space="preserve">
<g>
	<path d="M18.23,33.92c0-17.59-0.35-19.53-7.74-20.59l-4.75-0.7c-1.76-0.88-1.76-5.28,0.35-6.16c13.19-0.88,26.92-1.58,43.63-1.58
		c14.95,0,27.8,2.29,34.48,6.33C94.41,17.2,99.69,26,99.69,37.26c0,15.66-10.56,22.35-18.65,26.39c-1.76,0.88-1.76,1.94-0.88,3.87
		c11.61,23.58,18.82,36.77,27.27,43.99c4.57,3.69,9.15,4.75,11.79,4.93c1.59,0.88,1.59,3.52,0.71,4.57
		c-2.82,1.23-8.45,1.58-13.9,1.58c-16.19,0-26.39-5.81-34.13-18.47c-5.63-9.32-9.68-17.95-13.73-27.27
		c-2.11-4.75-4.92-6.16-9.32-6.16c-6.16,0-6.51,0.35-6.51,3.87V96.2c0,16.19,1.06,17.42,8.97,18.83l4.75,0.88
		c1.23,0.88,1.23,5.1,0,6.16c-9.32-0.35-17.42-0.53-25.86-0.53c-8.8,0-16.54,0.18-25.69,0.53c-1.41-1.06-1.41-5.28,0-6.16l4.75-0.88
		c7.92-1.41,8.98-2.64,8.98-18.83V33.92z M42.33,56.26c0,6.16,0.53,6.69,10.91,6.69c6.33,0,10.03-1.58,13.37-4.93
		c2.99-2.99,6.33-8.62,6.33-19c0-15.84-9.32-26.04-23.05-26.04c-7.22,0-7.57,0.53-7.57,8.97V56.26z"/>
	<path d="M261.62,62.95c0,38.35-25.69,61.4-63.51,61.4c-35.37,0-61.05-23.22-61.05-60c0-34.84,26.04-61.76,62.81-61.76
		C236.46,2.6,261.62,27.23,261.62,62.95z M198.46,10.69c-21.64,0-33.25,20.23-33.25,49.62c0,21.47,7.56,55.95,36.24,55.95
		c23.05,0,32.02-22.52,32.02-51.02C233.47,35.15,220.28,10.69,198.46,10.69z"/>
	<path d="M331.43,65.77c-7.22,0-7.39,0.18-7.39,5.1V96.2c0,16.36,1.05,17.95,8.97,19l5.63,0.7c1.41,1.06,1.41,5.1,0,6.16
		c-10.03-0.35-18.83-0.53-26.74-0.53c-8.45,0-17.25,0.18-26.22,0.53c-1.41-1.06-1.41-5.1,0-6.16l4.22-0.53
		c8.1-1.06,8.98-2.82,8.98-19.18V30.75c0-16.36-0.88-18.12-8.98-19.18l-4.22-0.53c-1.41-1.06-1.41-5.1,0-6.16
		c8.62,0.35,17.77,0.53,26.22,0.53c7.92,0,16.71-0.18,24.45-0.53c1.41,1.06,1.41,5.1,0,6.16l-3.69,0.53
		c-7.57,1.06-8.62,2.82-8.62,19.18v20.41c0,5.1,0.17,5.28,7.39,5.28h36.59c7.39,0,7.39-0.18,7.39-5.28V30.75
		c0-16.36-0.88-17.77-8.97-19l-4.75-0.7c-1.41-1.06-1.41-5.1,0-6.16c9.67,0.35,18.3,0.53,26.74,0.53c8.62,0,16.71-0.18,24.81-0.53
		c1.41,1.06,1.41,5.1,0,6.16l-3.52,0.53c-8.1,1.23-9.15,2.82-9.15,19.18V96.2c0,16.36,1.05,17.59,9.15,19l4.22,0.7
		c1.41,1.06,1.41,5.1,0,6.16c-8.8-0.35-17.42-0.53-25.51-0.53c-8.8,0-17.42,0.18-25.86,0.53c-1.41-1.06-1.41-5.1,0-6.16l3.87-0.53
		c8.09-1.06,8.97-2.82,8.97-19.18V70.87c0-4.93,0-5.1-7.39-5.1H331.43z"/>
</g>
</svg>
