<?xml version="1.0" standalone="no"?>
<!DOCTYPE svg PUBLIC "-//W3C//DTD SVG 20010904//EN"
 "http://www.w3.org/TR/2001/REC-SVG-20010904/DTD/svg10.dtd">
<svg version="1.0" xmlns="http://www.w3.org/2000/svg"
 width="872.000000pt" height="872.000000pt" viewBox="0 0 872.000000 872.000000"
 preserveAspectRatio="xMidYMid meet">
<metadata>
Created by potrace 1.11, written by Peter Selinger 2001-2013
</metadata>
<g transform="translate(0.000000,872.000000) scale(0.100000,-0.100000)"
fill="#000000" stroke="none">
<path d="M4127 5624 c-1 -1 -38 -4 -82 -8 -454 -34 -840 -280 -1037 -661 -43
-84 -83 -179 -93 -222 -2 -10 -11 -43 -19 -73 -33 -125 -47 -337 -32 -480 6
-59 40 -232 52 -270 3 -8 6 -17 6 -20 1 -3 14 -36 30 -73 155 -365 436 -600
827 -692 98 -23 104 -24 183 -32 171 -17 353 -6 551 32 118 23 311 104 425
180 76 49 217 180 269 250 74 98 173 295 188 377 3 11 9 35 14 52 66 213 59
562 -16 801 -133 424 -463 714 -924 810 -86 17 -331 38 -342 29z m147 -190
c271 -70 485 -357 557 -748 33 -179 44 -440 25 -601 -13 -115 -18 -150 -22
-156 -2 -3 -6 -21 -9 -40 -52 -299 -210 -524 -420 -598 -280 -98 -572 8 -740
267 -67 104 -141 280 -160 380 -2 13 -6 31 -9 40 -11 37 -29 149 -41 252 -3
30 -5 118 -5 195 2 179 1 159 11 240 14 103 18 123 40 205 68 256 185 423 362
516 117 61 283 81 411 48z"/>
<path d="M807 5574 c-1 -1 -94 -4 -207 -8 -353 -12 -469 -21 -486 -38 -18 -18
-23 -57 -12 -89 8 -24 16 -27 92 -38 139 -21 170 -54 182 -193 8 -93 8 -1629
0 -1725 -6 -81 -29 -137 -66 -165 -14 -10 -67 -27 -119 -37 -52 -11 -98 -24
-102 -28 -14 -14 -17 -76 -6 -100 9 -21 14 -22 116 -17 133 5 730 6 871 0 73
-3 107 -1 112 7 19 29 4 121 -19 123 -94 7 -199 41 -226 74 -42 49 -48 111
-48 486 0 396 -6 373 85 375 83 2 109 -2 146 -21 58 -30 60 -34 162 -260 91
-203 226 -439 305 -535 91 -111 212 -190 347 -229 90 -26 138 -31 306 -30 165
0 269 16 271 40 1 8 2 20 3 27 3 18 -16 57 -28 58 -158 12 -295 119 -451 354
-128 192 -384 691 -369 718 5 9 36 30 69 48 263 138 374 342 340 622 -25 204
-171 389 -379 481 -65 29 -234 71 -321 81 -33 3 -80 9 -104 12 -41 5 -458 12
-464 7z m325 -178 c234 -38 389 -253 389 -537 0 -246 -98 -418 -271 -474 -58
-19 -220 -25 -293 -11 -71 13 -69 0 -68 513 1 431 2 459 19 483 25 34 115 44
224 26z"/>
<path d="M5958 5573 c-17 -4 -31 -52 -25 -83 7 -38 23 -48 82 -54 148 -14 182
-42 203 -165 15 -84 9 -1837 -6 -1882 -26 -79 -64 -103 -182 -115 -30 -3 -64
-12 -75 -19 -23 -14 -30 -60 -15 -99 l10 -26 117 5 c143 7 715 7 872 1 75 -4
119 -2 128 6 15 12 17 86 4 107 -5 7 -28 15 -52 18 -24 2 -76 11 -116 19 -142
30 -149 56 -148 626 0 248 4 361 11 368 23 23 88 26 519 24 559 -2 512 0 526
-26 13 -24 17 -695 5 -818 -7 -73 -30 -126 -66 -152 -23 -17 -97 -35 -163 -40
-16 -1 -33 -8 -39 -15 -14 -18 -17 -73 -5 -100 10 -22 13 -23 131 -18 150 7
704 7 848 0 98 -4 108 -3 118 15 12 22 13 80 2 97 -4 6 -52 21 -107 32 -124
25 -152 48 -171 143 -17 80 -19 1769 -3 1858 12 62 48 116 87 131 15 6 60 16
100 23 40 7 74 15 76 17 12 12 13 78 3 99 l-12 24 -155 -4 c-186 -4 -663 -4
-812 1 -62 2 -111 0 -117 -6 -30 -31 -11 -124 27 -126 9 0 26 -2 37 -4 11 -2
36 -6 55 -8 110 -15 151 -57 165 -167 4 -30 7 -205 7 -388 1 -299 -1 -335 -16
-350 -15 -15 -63 -17 -512 -18 -457 -1 -497 0 -517 17 -21 17 -22 21 -21 336
0 352 6 441 32 492 25 50 57 69 142 83 41 6 81 17 89 24 16 14 17 92 2 107 -7
7 -63 10 -159 7 -185 -5 -839 -3 -866 3 -12 2 -29 2 -38 0z"/>
</g>
</svg>
